<svg width="13" height="16" viewBox="0 0 13 16" fill="none" xmlns="http://www.w3.org/2000/svg">
<path d="M6.87498 0C7.85415 0.0208334 8.77602 0.244791 9.6406 0.671873C10.5052 1.09896 11.1875 1.6875 11.6875 2.43749C12.2291 3.24999 12.5 4.16145 12.5 5.17186C12.5 6.18228 12.3333 7.1354 12 8.03123C11.625 9.0104 11.0937 9.78123 10.4062 10.3437C9.63539 10.9687 8.72915 11.2812 7.68748 11.2812C7.27082 11.2812 6.85415 11.1823 6.43749 10.9843C6.02082 10.7864 5.71874 10.5104 5.53124 10.1562L5.28124 11.1562C5.01041 12.2396 4.79166 12.9896 4.62499 13.4062C4.37499 13.9687 3.92708 14.6875 3.28124 15.5625L3.15624 15.625L3.06249 15.5312L3.03124 15.0625C2.96874 14.4791 2.93749 14.0416 2.93749 13.75C2.93749 13.125 3.04166 12.3125 3.24999 11.3125C3.37499 10.7291 3.58333 9.86456 3.87499 8.71873L4.24999 7.21873C4.04166 6.8229 3.93749 6.30207 3.93749 5.65624C3.93749 5.05207 4.09374 4.55207 4.40624 4.15624C4.67707 3.82291 5.01041 3.61457 5.40624 3.53124C5.80207 3.44791 6.14582 3.52083 6.43749 3.74999C6.72915 3.97916 6.87498 4.34374 6.87498 4.84374C6.87498 5.11457 6.83332 5.41665 6.74999 5.74999C6.70832 5.93749 6.61457 6.22915 6.46874 6.62498C6.3229 7.02082 6.22915 7.31248 6.18749 7.49998C6.10415 7.83332 6.06249 8.12498 6.06249 8.37498C6.06249 8.77081 6.20311 9.09894 6.48436 9.35935C6.76561 9.61977 7.10415 9.74998 7.49998 9.74998C8.16665 9.74998 8.72915 9.45831 9.18748 8.87498C9.58331 8.39581 9.87498 7.74998 10.0625 6.93748C10.2291 6.27082 10.3125 5.61457 10.3125 4.96874C10.3125 3.88541 9.97394 3.04166 9.29685 2.43749C8.61977 1.83333 7.72915 1.53125 6.62499 1.53125C5.81249 1.53125 5.0677 1.71875 4.39062 2.09374C3.71353 2.46874 3.18749 2.97916 2.81249 3.62499C2.4375 4.27082 2.25 5.0104 2.25 5.84374C2.25 6.1979 2.3125 6.54165 2.4375 6.87498C2.5 7.06248 2.61458 7.29165 2.78124 7.56248C2.90624 7.77081 2.96874 7.90623 2.96874 7.96873C2.96874 8.1354 2.92708 8.34373 2.84374 8.59373C2.73958 8.90623 2.62499 9.06248 2.5 9.06248C2.22916 9.06248 1.9375 8.92185 1.625 8.6406C1.3125 8.35935 1.05208 7.97915 0.843749 7.49998C0.614583 6.93748 0.5 6.31249 0.5 5.62499C0.5 4.49999 0.812499 3.49999 1.4375 2.62499C2.02083 1.8125 2.80208 1.17187 3.78124 0.703123C4.76041 0.234374 5.79165 0 6.87498 0Z" fill="#EA0010"/>
</svg>
