<svg width="15" height="14" viewBox="0 0 15 14" fill="none" xmlns="http://www.w3.org/2000/svg">
<path d="M5.59038 0C4.88695 0.000519057 4.31766 0.570443 4.31818 1.27273C4.31766 1.97501 4.88747 2.54494 5.5909 2.54545H6.86363V1.27325C6.86415 0.570962 6.29433 0.00103811 5.59038 0C5.5909 0 5.5909 0 5.59038 0" fill="#36C5F0"/>
<path d="M5.49976 3.81824H1.86388C1.11007 3.81876 0.499444 4.38856 0.500002 5.09071C0.498887 5.79285 1.10951 6.36265 1.86332 6.36369H5.49976C6.25357 6.36317 6.86419 5.79336 6.86364 5.09122C6.86419 4.38856 6.25357 3.81876 5.49976 3.81824Z" fill="#36C5F0"/>
<path d="M14.5 5.09071C14.5005 4.38856 13.9307 3.81876 13.2273 3.81824C12.5238 3.81876 11.954 4.38856 11.9545 5.09071V6.36369H13.2273C13.9307 6.36317 14.5005 5.79336 14.5 5.09071Z" fill="#2EB67D"/>
<path d="M10.6818 4.99972V1.36336C10.6823 0.611621 10.1129 0.00111204 9.40934 0C8.70577 0.000556019 8.13583 0.611065 8.13635 1.36336V4.99972C8.13531 5.75202 8.70525 6.36252 9.40882 6.36364C10.1124 6.36308 10.6823 5.75257 10.6818 4.99972Z" fill="#2EB67D"/>
<path d="M9.40908 14C10.1125 13.9995 10.6823 13.4296 10.6818 12.7273C10.6823 12.025 10.1125 11.4551 9.40908 11.4546H8.13635V12.7273C8.13583 13.4291 8.70565 13.999 9.40908 14Z" fill="#ECB22E"/>
<path d="M9.49967 10.1818H13.1361C13.8899 10.1813 14.5005 9.61148 14.5 8.90934C14.5011 8.2072 13.8905 7.63739 13.1367 7.63635H9.50023C8.74642 7.63687 8.1358 8.20668 8.13635 8.90882C8.1358 9.61148 8.74586 10.1813 9.49967 10.1818V10.1818Z" fill="#ECB22E"/>
<path d="M0.5 8.90908C0.49948 9.61136 1.0693 10.1813 1.77273 10.1818C2.47616 10.1813 3.04597 9.61136 3.04545 8.90908V7.63635H1.77273C1.0693 7.63687 0.49948 8.2068 0.5 8.90908Z" fill="#E01E5A"/>
<path d="M4.31818 8.99927V12.636C4.31714 13.3883 4.88707 13.9989 5.59064 14C6.29422 13.9994 6.86415 13.3889 6.86363 12.6365V9.00039C6.86467 8.24803 6.29474 7.63746 5.59116 7.63635C4.88707 7.63635 4.31766 8.24691 4.31818 8.99927C4.31818 8.99927 4.31818 8.99983 4.31818 8.99927" fill="#E01E5A"/>
</svg>
