<svg width="17" height="13" viewBox="0 0 17 13" fill="none" xmlns="http://www.w3.org/2000/svg">
<path d="M14.8437 3.24999C14.8645 3.33333 14.875 3.46874 14.875 3.65624C14.875 5.15624 14.5104 6.60415 13.7812 7.99998C13.0312 9.47914 11.9791 10.6562 10.625 11.5312C9.14581 12.5104 7.4479 13 5.53124 13C3.69791 13 2.02083 12.5104 0.5 11.5312C0.729166 11.5521 0.989582 11.5625 1.28125 11.5625C2.80208 11.5625 4.16666 11.0937 5.37499 10.1562C4.64582 10.1562 4.0052 9.94268 3.45312 9.5156C2.90104 9.08852 2.52083 8.55206 2.3125 7.90623C2.52083 7.92706 2.71874 7.93748 2.90624 7.93748C3.19791 7.93748 3.48958 7.90623 3.78124 7.84373C3.03124 7.67707 2.40625 7.29165 1.90625 6.68748C1.40625 6.08332 1.15625 5.39582 1.15625 4.62499V4.56249C1.61458 4.83332 2.10416 4.97915 2.62499 4.99999C2.1875 4.68749 1.83333 4.29166 1.5625 3.81249C1.29166 3.33333 1.15625 2.80728 1.15625 2.23437C1.15625 1.66145 1.3125 1.11458 1.625 0.593749C2.4375 1.61458 3.43228 2.42708 4.60936 3.03124C5.78645 3.63541 7.04165 3.96874 8.37498 4.03124C8.33331 3.78124 8.31248 3.53124 8.31248 3.28124C8.31248 2.69791 8.45831 2.15104 8.74998 1.64062C9.04165 1.13021 9.43748 0.729165 9.93748 0.437499C10.4375 0.145833 10.9791 0 11.5625 0C12.0416 0 12.4843 0.0937498 12.8906 0.281249C13.2968 0.468749 13.6562 0.718748 13.9687 1.03125C14.7187 0.885414 15.4166 0.624999 16.0625 0.249999C15.8125 1.02083 15.3333 1.625 14.625 2.06249C15.25 1.97916 15.875 1.80208 16.5 1.53125C16.0416 2.19791 15.4895 2.77083 14.8437 3.24999Z" fill="#00A2F3"/>
</svg>
