<svg width="120" height="44" viewBox="0 0 120 44" fill="none" xmlns="http://www.w3.org/2000/svg">
<rect width="44" height="44" rx="22" fill="#3E7EFF"/>
<mask id="mask0_39_25235" style="mask-type:alpha" maskUnits="userSpaceOnUse" x="0" y="0" width="44" height="44">
<rect width="44" height="44" rx="22" fill="white"/>
</mask>
<g mask="url(#mask0_39_25235)">
<rect width="44" height="44" fill="url(#paint0_radial_39_25235)"/>
<path d="M22.0894 9.625C22.0894 9.73816 22.0894 9.85131 22.0894 9.96447C22.0894 14.1513 22.0894 18.3947 22.0894 22.5815C22.0894 22.6381 22.0894 22.7512 22.0894 22.8078C22.0894 22.8644 22.0328 22.921 21.9762 22.921C21.5802 23.0907 21.2407 23.2604 20.8447 23.4302C20.3355 23.6565 19.7697 23.8828 19.2605 24.1657C18.6381 24.4486 18.0157 24.7315 17.3934 25.0144C16.8842 25.2407 16.375 25.467 15.8658 25.6933C15.2434 25.9762 14.621 26.2591 13.9987 26.542C13.4895 26.7683 12.9803 26.9946 12.4145 27.2775C12.0184 27.4473 11.5658 27.6736 11.1697 27.8433C11.1132 27.8433 11.1132 27.8999 11.0566 27.8433C11.0566 27.8433 11.0566 27.8433 11 27.8433C11.1697 27.5604 11.3395 27.3341 11.5092 27.0512C12.4145 25.5236 13.3763 23.996 14.2816 22.4683C15.2434 20.8276 16.2618 19.1868 17.2236 17.546C18.1289 16.0184 19.0342 14.4908 19.9394 13.0197C20.6184 11.8881 21.2973 10.8132 21.9197 9.68158C22.0328 9.68158 22.0328 9.625 22.0894 9.625C22.0328 9.625 22.0894 9.625 22.0894 9.625Z" fill="white"/>
<path d="M11.0565 27.8433C11.0565 27.8433 11.1131 27.8433 11.0565 27.8433C11.1131 27.8433 11.1131 27.8433 11.0565 27.8433C11.0565 27.8998 11.0565 27.8998 11.0565 27.8433Z" fill="#808080"/>
<path d="M11.1132 27.8999C11.1132 27.8434 11.1132 27.8434 11.1132 27.8999C11.6789 27.617 12.2447 27.3907 12.8105 27.1078C13.546 26.7684 14.2816 26.4289 15.0171 26.0894C15.5829 25.8065 16.1487 25.5802 16.7144 25.2973C17.5065 24.9013 18.3552 24.5618 19.1473 24.1657C19.7131 23.9394 20.2789 23.6565 20.8447 23.4302C21.2407 23.2605 21.6368 23.0908 22.0328 22.8644C22.0894 22.8644 22.0894 22.8079 22.146 22.8079C22.146 22.8079 22.146 22.8079 22.146 22.8644C22.146 22.921 22.146 22.921 22.146 22.9776C22.146 26.7118 22.146 30.446 22.146 34.1802C22.146 34.2367 22.146 34.2933 22.146 34.3499C22.0894 34.4065 22.0894 34.3499 22.0328 34.3499C21.8631 34.2367 21.6934 34.1802 21.5802 34.067C18.1289 32.0302 14.6776 29.9933 11.2263 27.9565C11.1697 27.8999 11.1132 27.8999 11.1132 27.8999Z" fill="#D7D7D7"/>
<path d="M22.0894 22.8643C22.0894 22.8078 22.0894 22.7512 22.0894 22.7512C22.0894 18.4512 22.0894 14.0947 22.0894 9.79468C22.0894 9.7381 22.0894 9.68152 22.0894 9.68152C25.7104 15.6789 29.3314 21.6762 32.9524 27.6735C33.009 27.7301 33.0656 27.7867 33.0656 27.8433C32.8393 27.7301 32.613 27.6169 32.3301 27.5038C32.0472 27.3906 31.7643 27.2209 31.4814 27.1077C31.3117 27.0512 31.1419 26.938 30.9156 26.8814C30.6327 26.7683 30.2933 26.5985 30.0104 26.4854C29.8406 26.4288 29.6709 26.3156 29.5012 26.2591C29.1051 26.0893 28.7091 25.9196 28.313 25.7498C28.0867 25.6367 27.917 25.5801 27.6906 25.467C27.4077 25.3538 27.1249 25.1841 26.842 25.0709C26.6722 25.0143 26.5025 24.9012 26.3328 24.8446C25.9367 24.6749 25.5407 24.5051 25.1446 24.3354C24.9183 24.2222 24.7486 24.1656 24.5222 24.0525C24.2393 23.9393 23.9564 23.7696 23.6736 23.6564C23.5038 23.5433 23.2775 23.4867 23.1078 23.3735C22.7683 23.2038 22.4288 23.0341 22.0894 22.8643Z" fill="#EDEDED"/>
</g>
<path d="M56.1165 24.4006V30H52.9908V20.1818H55.9631V21.9844H56.0717C56.2891 21.3835 56.6598 20.9126 57.1839 20.5717C57.7081 20.2266 58.3324 20.054 59.0568 20.054C59.7472 20.054 60.3459 20.2095 60.853 20.5206C61.3643 20.8274 61.7607 21.2578 62.0419 21.8118C62.3274 22.3615 62.468 23.005 62.4638 23.7422V30H59.3381V24.3558C59.3423 23.8104 59.2038 23.3842 58.9226 23.0774C58.6456 22.7706 58.2599 22.6172 57.7656 22.6172C57.4375 22.6172 57.1477 22.6896 56.8963 22.8345C56.6491 22.9751 56.4574 23.1776 56.321 23.4418C56.1889 23.706 56.1207 24.0256 56.1165 24.4006ZM68.9885 30.1854C67.9615 30.1854 67.0751 29.983 66.3294 29.5781C65.5879 29.169 65.0169 28.5874 64.6163 27.8331C64.22 27.0746 64.0218 26.1733 64.0218 25.1293C64.0218 24.1151 64.2221 23.2287 64.6227 22.4702C65.0233 21.7074 65.5879 21.1151 66.3166 20.6932C67.0453 20.267 67.9039 20.054 68.8926 20.054C69.5914 20.054 70.2306 20.1626 70.8102 20.38C71.3897 20.5973 71.8904 20.919 72.3123 21.3452C72.7342 21.7713 73.0623 22.2976 73.2967 22.924C73.5311 23.5462 73.6483 24.2599 73.6483 25.0653V25.8452H65.1149V24.0298H70.7399C70.7356 23.6974 70.6568 23.4013 70.5034 23.1413C70.35 22.8814 70.139 22.679 69.8706 22.5341C69.6064 22.3849 69.3017 22.3104 68.9565 22.3104C68.6071 22.3104 68.2939 22.3892 68.0169 22.5469C67.7399 22.7003 67.5204 22.9112 67.3585 23.1797C67.1966 23.4439 67.1113 23.7443 67.1028 24.081V25.9283C67.1028 26.3288 67.1816 26.6804 67.3393 26.983C67.497 27.2812 67.7207 27.5135 68.0105 27.6797C68.3002 27.8459 68.6454 27.929 69.046 27.929C69.323 27.929 69.5744 27.8906 69.8002 27.8139C70.0261 27.7372 70.22 27.6243 70.3819 27.4751C70.5439 27.326 70.6653 27.1428 70.7463 26.9254L73.6163 27.0085C73.497 27.652 73.2349 28.2124 72.8301 28.6896C72.4295 29.1626 71.9032 29.5312 71.2512 29.7955C70.5993 30.0554 69.845 30.1854 68.9885 30.1854ZM79.8278 30.1854C78.7965 30.1854 77.9102 29.9744 77.1687 29.5526C76.4315 29.1264 75.8626 28.5341 75.462 27.7756C75.0657 27.0128 74.8675 26.1286 74.8675 25.1229C74.8675 24.1129 75.0657 23.2287 75.462 22.4702C75.8626 21.7074 76.4315 21.1151 77.1687 20.6932C77.9102 20.267 78.7965 20.054 79.8278 20.054C80.859 20.054 81.7433 20.267 82.4805 20.6932C83.2219 21.1151 83.7908 21.7074 84.1871 22.4702C84.5877 23.2287 84.788 24.1129 84.788 25.1229C84.788 26.1286 84.5877 27.0128 84.1871 27.7756C83.7908 28.5341 83.2219 29.1264 82.4805 29.5526C81.7433 29.9744 80.859 30.1854 79.8278 30.1854ZM79.8469 27.8267C80.2219 27.8267 80.5394 27.7116 80.7994 27.4815C81.0593 27.2514 81.2575 26.9318 81.3938 26.5227C81.5344 26.1136 81.6048 25.6406 81.6048 25.1037C81.6048 24.5582 81.5344 24.081 81.3938 23.6719C81.2575 23.2628 81.0593 22.9432 80.7994 22.7131C80.5394 22.483 80.2219 22.3679 79.8469 22.3679C79.4592 22.3679 79.131 22.483 78.8626 22.7131C78.5984 22.9432 78.396 23.2628 78.2553 23.6719C78.119 24.081 78.0508 24.5582 78.0508 25.1037C78.0508 25.6406 78.119 26.1136 78.2553 26.5227C78.396 26.9318 78.5984 27.2514 78.8626 27.4815C79.131 27.7116 79.4592 27.8267 79.8469 27.8267ZM91.9695 20.1818V22.483H85.6541V20.1818H91.9695ZM86.9709 30V19.6832C86.9709 18.9247 87.1136 18.2962 87.3991 17.7976C87.6847 17.2947 88.081 16.9197 88.5881 16.6726C89.0952 16.4212 89.6811 16.2955 90.3459 16.2955C90.7805 16.2955 91.1896 16.3295 91.5732 16.3977C91.9609 16.4616 92.2486 16.5192 92.4361 16.5703L91.9375 18.8587C91.8224 18.8203 91.6818 18.7884 91.5156 18.7628C91.3537 18.7372 91.2003 18.7244 91.0554 18.7244C90.6889 18.7244 90.4375 18.8054 90.3011 18.9673C90.1648 19.1293 90.0966 19.3509 90.0966 19.6321V30H86.9709ZM99.0151 20.1818V22.483H92.8212V20.1818H99.0151ZM94.1188 17.8295H97.2445V26.9126C97.2445 27.1044 97.2743 27.2599 97.334 27.3793C97.3979 27.4943 97.4895 27.5774 97.6088 27.6286C97.7282 27.6754 97.8709 27.6989 98.0371 27.6989C98.1564 27.6989 98.2821 27.6882 98.4142 27.6669C98.5506 27.6413 98.6529 27.62 98.7211 27.603L99.1941 29.8594C99.0449 29.902 98.834 29.9553 98.5613 30.0192C98.2928 30.0831 97.9711 30.1236 97.5961 30.1406C96.8631 30.1747 96.2346 30.0895 95.7104 29.8849C95.1905 29.6761 94.7921 29.3523 94.5151 28.9134C94.2424 28.4744 94.1103 27.9226 94.1188 27.2578V17.8295Z" fill="black"/>
<defs>
<radialGradient id="paint0_radial_39_25235" cx="0" cy="0" r="1" gradientUnits="userSpaceOnUse" gradientTransform="translate(8.3768 37.391) rotate(-29.2168) scale(94.7222)">
<stop stop-color="#7A52F4"/>
<stop offset="1" stop-color="#F20089"/>
</radialGradient>
</defs>
</svg>
